<mxfile host="app.diagrams.net" modified="2024-05-17T01:09:02.287Z" agent="Mozilla/5.0 (Macintosh; Intel Mac OS X 10.15; rv:126.0) Gecko/20100101 Firefox/126.0" version="24.4.3" etag="026vUtZZgVaorVsNRj-U" type="github">
  <diagram name="Page-1" id="VrnOc70MuanRI3gTiOjm">
    <mxGraphModel>
      <root>
        <mxCell id="0" />
        <mxCell id="1" parent="0" />
      </root>
    </mxGraphModel>
  </diagram>
</mxfile>
